<?xml version="1.0" encoding="utf-8"?>
<!-- Generator: Adobe Illustrator 24.1.3, SVG Export Plug-In . SVG Version: 6.00 Build 0)  -->
<svg version="1.1"
	 id="Capa_1" xmlns:cc="http://creativecommons.org/ns#" xmlns:dc="http://purl.org/dc/elements/1.1/" xmlns:rdf="http://www.w3.org/1999/02/22-rdf-syntax-ns#"
	 xmlns="http://www.w3.org/2000/svg" xmlns:xlink="http://www.w3.org/1999/xlink" x="0px" y="0px" viewBox="0 0 500.7 460.5"
	 style="enable-background:new 0 0 500.7 460.5;" xml:space="preserve">
<style type="text/css">
	.st0{enable-background:new    ;}
	.st1{fill:#008EC2;}
	.st2{fill:#2C303D;}
</style>
<g transform="translate(0 -175.15)">
	<g class="st0">
		<path class="st1" d="M338,612.8c-13.7,0-25.6-4.6-35.6-13.7s-15-21.9-15-38.3c0-13.9,4.8-25.9,14.3-35.9
			c9.5-10,21.3-15.1,35.2-15.1s25.9,5,35.7,14.9c9.9,9.9,14.8,22,14.8,36.1c0,16.2-4.9,28.9-14.8,38.2
			C362.9,608.2,351.3,612.8,338,612.8z"/>
	</g>
	<g class="st0">
		<path class="st2" d="M65.4,605.7V253.4h100.5c38.1,0,62.9,1.8,74.5,5.3c17.8,5.3,32.7,16.8,44.6,34.5c12,17.7,18,40.6,18,68.6
			c0,21.6-3.5,39.8-10.4,54.6c-6.9,14.7-15.7,26.3-26.3,34.7c-10.7,8.4-21.5,14-32.5,16.7c-15,3.4-36.6,5-65,5H128v132.9H65.4z
			 M128,313v100h34.3c24.7,0,41.2-1.8,49.5-5.5c8.3-3.7,14.8-9.5,19.6-17.3c4.7-7.8,7.1-17,7.1-27.4c0-12.8-3.3-23.4-9.9-31.7
			c-6.6-8.3-15-13.5-25.2-15.6c-7.5-1.6-22.5-2.4-45.1-2.4H128z"/>
	</g>
</g>
</svg>
